<mxfile host="drawio-plugin" modified="2024-08-04T21:12:54.287Z" agent="Mozilla/5.0 (Windows NT 10.0; Win64; x64) AppleWebKit/537.36 (KHTML, like Gecko) Chrome/122.0.0.0 Safari/537.36" etag="VDEVXwUrDX3BDovNdOEJ" version="22.1.22" type="embed">
  <diagram id="EUNj880BrhCWBs-la3PF" name="Page-1">
    <mxGraphModel dx="1969" dy="369" grid="1" gridSize="10" guides="1" tooltips="1" connect="1" arrows="1" fold="1" page="1" pageScale="1" pageWidth="850" pageHeight="1100" math="0" shadow="0">
      <root>
        <mxCell id="0" />
        <mxCell id="1" parent="0" />
        <mxCell id="5" value="" style="rounded=0;whiteSpace=wrap;html=1;strokeColor=#97D077;fillColor=none;" parent="1" vertex="1">
          <mxGeometry x="120" y="780" width="730" height="190" as="geometry" />
        </mxCell>
        <mxCell id="8" value="Controller" style="rounded=1;whiteSpace=wrap;html=1;strokeColor=#9673a6;fillColor=#BD93F9;dashed=1;" parent="1" vertex="1">
          <mxGeometry x="721.25" y="820" width="100" height="50" as="geometry" />
        </mxCell>
        <mxCell id="9" value="ValidationComposite" style="rounded=1;whiteSpace=wrap;html=1;strokeColor=#8BE9FD;fillColor=#8BE9FD;" parent="1" vertex="1">
          <mxGeometry x="711.25" y="910" width="120" height="50" as="geometry" />
        </mxCell>
        <mxCell id="197" value="" style="edgeStyle=orthogonalEdgeStyle;rounded=0;orthogonalLoop=1;jettySize=auto;html=1;" parent="1" source="11" target="141" edge="1">
          <mxGeometry relative="1" as="geometry" />
        </mxCell>
        <mxCell id="219" value="" style="edgeStyle=orthogonalEdgeStyle;rounded=0;orthogonalLoop=1;jettySize=auto;html=1;entryX=0;entryY=0.5;entryDx=0;entryDy=0;exitX=0.25;exitY=0;exitDx=0;exitDy=0;" parent="1" source="11" target="220" edge="1">
          <mxGeometry relative="1" as="geometry">
            <mxPoint x="92" y="815" as="targetPoint" />
          </mxGeometry>
        </mxCell>
        <mxCell id="11" value="SigninController" style="rounded=1;whiteSpace=wrap;html=1;strokeColor=#8BE9FD;fillColor=#8BE9FD;" parent="1" vertex="1">
          <mxGeometry x="446.25" y="790" width="115" height="50" as="geometry" />
        </mxCell>
        <mxCell id="57" value="&lt;span style=&quot;font-size: 15px;&quot;&gt;&lt;b&gt;APPLICATION&lt;br&gt;&lt;/b&gt;&lt;/span&gt;" style="text;html=1;align=center;verticalAlign=middle;resizable=0;points=[];autosize=1;strokeColor=none;fillColor=none;" parent="1" vertex="1">
          <mxGeometry x="730" y="780" width="120" height="30" as="geometry" />
        </mxCell>
        <mxCell id="58" value="" style="rounded=0;whiteSpace=wrap;html=1;strokeColor=#97D077;fillColor=none;" parent="1" vertex="1">
          <mxGeometry x="120" y="560" width="730" height="185" as="geometry" />
        </mxCell>
        <mxCell id="73" value="&lt;span style=&quot;font-size: 15px;&quot;&gt;&lt;b&gt;DOMAIN&lt;/b&gt;&lt;/span&gt;" style="text;html=1;align=center;verticalAlign=middle;resizable=0;points=[];autosize=1;strokeColor=none;fillColor=none;" parent="1" vertex="1">
          <mxGeometry x="770" y="560" width="80" height="30" as="geometry" />
        </mxCell>
        <mxCell id="79" value="UnauthorizedException" style="rounded=1;whiteSpace=wrap;html=1;strokeColor=#d6b656;fillColor=#FF79C6;" parent="1" vertex="1">
          <mxGeometry x="691.25" y="680" width="140" height="50" as="geometry" />
        </mxCell>
        <mxCell id="201" value="" style="edgeStyle=orthogonalEdgeStyle;rounded=0;orthogonalLoop=1;jettySize=auto;html=1;" parent="1" source="81" target="79" edge="1">
          <mxGeometry relative="1" as="geometry" />
        </mxCell>
        <mxCell id="202" value="" style="edgeStyle=orthogonalEdgeStyle;rounded=0;orthogonalLoop=1;jettySize=auto;html=1;dashed=1;" parent="1" source="81" target="104" edge="1">
          <mxGeometry relative="1" as="geometry" />
        </mxCell>
        <mxCell id="203" value="" style="edgeStyle=orthogonalEdgeStyle;rounded=0;orthogonalLoop=1;jettySize=auto;html=1;dashed=1;" parent="1" source="81" target="178" edge="1">
          <mxGeometry relative="1" as="geometry" />
        </mxCell>
        <mxCell id="81" value="Signin" style="rounded=1;whiteSpace=wrap;html=1;strokeColor=#8BE9FD;fillColor=#8BE9FD;" parent="1" vertex="1">
          <mxGeometry x="428.13" y="680" width="150" height="50" as="geometry" />
        </mxCell>
        <mxCell id="93" value="" style="rounded=0;whiteSpace=wrap;html=1;strokeColor=none;strokeWidth=3;fillColor=#FF79C6;fontSize=13;fontColor=#F8F8F2;align=right;" parent="1" vertex="1">
          <mxGeometry x="-132" y="274" width="20" height="20" as="geometry" />
        </mxCell>
        <mxCell id="94" value="&lt;font color=&quot;#000000&quot;&gt;Entities&lt;/font&gt;" style="text;html=1;resizable=0;points=[];autosize=1;align=left;verticalAlign=middle;spacingTop=-4;fontSize=13;fontColor=#F8F8F2;" parent="1" vertex="1">
          <mxGeometry x="-110" y="274" width="70" height="20" as="geometry" />
        </mxCell>
        <mxCell id="95" value="" style="rounded=0;whiteSpace=wrap;html=1;strokeColor=none;strokeWidth=3;fillColor=#BD93F9;fontSize=13;fontColor=#F8F8F2;align=right;" parent="1" vertex="1">
          <mxGeometry x="-132" y="303" width="20" height="20" as="geometry" />
        </mxCell>
        <mxCell id="96" value="&lt;font color=&quot;#000000&quot;&gt;Abstraction&lt;/font&gt;" style="text;html=1;resizable=0;points=[];autosize=1;align=left;verticalAlign=middle;spacingTop=-4;fontSize=13;fontColor=#F8F8F2;" parent="1" vertex="1">
          <mxGeometry x="-110" y="303" width="90" height="20" as="geometry" />
        </mxCell>
        <mxCell id="97" value="" style="rounded=0;whiteSpace=wrap;html=1;strokeColor=none;strokeWidth=3;fillColor=#8BE9FD;fontSize=13;fontColor=#F8F8F2;align=right;" parent="1" vertex="1">
          <mxGeometry x="-132" y="334" width="20" height="20" as="geometry" />
        </mxCell>
        <mxCell id="98" value="&lt;font color=&quot;#000000&quot;&gt;Implementation&lt;/font&gt;" style="text;html=1;resizable=0;points=[];autosize=1;align=left;verticalAlign=middle;spacingTop=-4;fontSize=13;fontColor=#F8F8F2;" parent="1" vertex="1">
          <mxGeometry x="-110" y="334" width="110" height="20" as="geometry" />
        </mxCell>
        <mxCell id="99" value="" style="rounded=0;whiteSpace=wrap;html=1;strokeColor=none;strokeWidth=3;fillColor=#50FA7B;fontSize=13;fontColor=#F8F8F2;align=right;" parent="1" vertex="1">
          <mxGeometry x="-132" y="245" width="20" height="20" as="geometry" />
        </mxCell>
        <mxCell id="100" value="&lt;font color=&quot;#000000&quot;&gt;Layer&lt;/font&gt;" style="text;html=1;resizable=0;points=[];autosize=1;align=left;verticalAlign=middle;spacingTop=-4;fontSize=13;fontColor=#F8F8F2;strokeColor=none;" parent="1" vertex="1">
          <mxGeometry x="-110" y="245" width="60" height="20" as="geometry" />
        </mxCell>
        <mxCell id="101" value="" style="rounded=0;whiteSpace=wrap;html=1;strokeColor=none;strokeWidth=3;fillColor=#FF5555;fontSize=13;fontColor=#F8F8F2;align=right;" parent="1" vertex="1">
          <mxGeometry x="-132" y="365" width="20" height="20" as="geometry" />
        </mxCell>
        <mxCell id="102" value="&lt;font color=&quot;#000000&quot;&gt;External Lib&lt;/font&gt;" style="text;html=1;resizable=0;points=[];autosize=1;align=left;verticalAlign=middle;spacingTop=-4;fontSize=13;fontColor=#F8F8F2;" parent="1" vertex="1">
          <mxGeometry x="-110" y="365" width="90" height="20" as="geometry" />
        </mxCell>
        <mxCell id="205" value="" style="edgeStyle=orthogonalEdgeStyle;rounded=0;orthogonalLoop=1;jettySize=auto;html=1;entryX=0.5;entryY=1;entryDx=0;entryDy=0;" parent="1" source="104" target="113" edge="1">
          <mxGeometry relative="1" as="geometry">
            <mxPoint x="213.75" y="600" as="targetPoint" />
          </mxGeometry>
        </mxCell>
        <mxCell id="104" value="IUserAdapter" style="rounded=1;whiteSpace=wrap;html=1;strokeColor=#9673a6;fillColor=#BD93F9;dashed=1;" parent="1" vertex="1">
          <mxGeometry x="138.75" y="680" width="150" height="50" as="geometry" />
        </mxCell>
        <mxCell id="109" value="" style="rounded=0;whiteSpace=wrap;html=1;strokeColor=#97D077;fillColor=none;" parent="1" vertex="1">
          <mxGeometry x="120" y="300" width="728.75" height="217" as="geometry" />
        </mxCell>
        <mxCell id="110" value="" style="edgeStyle=elbowEdgeStyle;elbow=vertical;endArrow=classic;html=1;curved=0;rounded=0;endSize=8;startSize=8;exitX=0.5;exitY=0;exitDx=0;exitDy=0;entryX=0.5;entryY=1;entryDx=0;entryDy=0;strokeColor=#000000;" parent="1" source="11" target="81" edge="1">
          <mxGeometry width="50" height="50" relative="1" as="geometry">
            <mxPoint x="610" y="530" as="sourcePoint" />
            <mxPoint x="660" y="480" as="targetPoint" />
          </mxGeometry>
        </mxCell>
        <mxCell id="113" value="UserAdapter" style="rounded=1;whiteSpace=wrap;html=1;strokeColor=#8BE9FD;fillColor=#8BE9FD;" parent="1" vertex="1">
          <mxGeometry x="138.75" y="450" width="150" height="50" as="geometry" />
        </mxCell>
        <mxCell id="115" value="&lt;b style=&quot;border-color: var(--border-color);&quot;&gt;&lt;font style=&quot;border-color: var(--border-color); font-size: 15px;&quot;&gt;INFRA&lt;br&gt;&lt;/font&gt;&lt;/b&gt;" style="text;html=1;align=center;verticalAlign=middle;resizable=0;points=[];autosize=1;strokeColor=none;fillColor=none;" parent="1" vertex="1">
          <mxGeometry x="778.75" y="300" width="70" height="30" as="geometry" />
        </mxCell>
        <mxCell id="116" value="UserEntityMapper" style="rounded=1;whiteSpace=wrap;html=1;strokeColor=#8BE9FD;fillColor=#8BE9FD;" parent="1" vertex="1">
          <mxGeometry x="138.75" y="360" width="150" height="50" as="geometry" />
        </mxCell>
        <mxCell id="126" value="" style="endArrow=classic;html=1;rounded=0;entryX=0.5;entryY=1;entryDx=0;entryDy=0;fillColor=#dae8fc;strokeColor=#6c8ebf;exitX=0.5;exitY=0;exitDx=0;exitDy=0;" parent="1" source="113" target="116" edge="1">
          <mxGeometry width="50" height="50" relative="1" as="geometry">
            <mxPoint x="622.49" y="350" as="sourcePoint" />
            <mxPoint x="622.49" y="250" as="targetPoint" />
          </mxGeometry>
        </mxCell>
        <mxCell id="200" value="" style="edgeStyle=orthogonalEdgeStyle;rounded=0;orthogonalLoop=1;jettySize=auto;html=1;entryX=1;entryY=0.5;entryDx=0;entryDy=0;" parent="1" source="141" target="142" edge="1">
          <mxGeometry relative="1" as="geometry">
            <mxPoint x="366.25" y="915" as="targetPoint" />
          </mxGeometry>
        </mxCell>
        <mxCell id="141" value="ValidationBuilder" style="rounded=1;whiteSpace=wrap;html=1;strokeColor=#8BE9FD;fillColor=#8BE9FD;" parent="1" vertex="1">
          <mxGeometry x="446.25" y="890" width="113.75" height="50" as="geometry" />
        </mxCell>
        <mxCell id="142" value="RequiredFieldValidator" style="rounded=1;whiteSpace=wrap;html=1;strokeColor=#8BE9FD;fillColor=#8BE9FD;" parent="1" vertex="1">
          <mxGeometry x="137.5" y="890" width="152.5" height="50" as="geometry" />
        </mxCell>
        <mxCell id="160" value="" style="endArrow=classic;html=1;rounded=0;exitX=1;exitY=0.5;exitDx=0;exitDy=0;entryX=0;entryY=0.5;entryDx=0;entryDy=0;dashed=1;fillColor=#dae8fc;strokeColor=#000000;" parent="1" source="11" target="8" edge="1">
          <mxGeometry width="50" height="50" relative="1" as="geometry">
            <mxPoint x="760" y="880" as="sourcePoint" />
            <mxPoint x="810" y="830" as="targetPoint" />
            <Array as="points">
              <mxPoint x="640" y="815" />
              <mxPoint x="640" y="845" />
            </Array>
          </mxGeometry>
        </mxCell>
        <mxCell id="161" value="" style="endArrow=classic;html=1;rounded=0;exitX=0.5;exitY=1;exitDx=0;exitDy=0;entryX=0.5;entryY=0;entryDx=0;entryDy=0;fillColor=#dae8fc;strokeColor=#6c8ebf;" parent="1" source="8" target="9" edge="1">
          <mxGeometry width="50" height="50" relative="1" as="geometry">
            <mxPoint x="640" y="880" as="sourcePoint" />
            <mxPoint x="690" y="830" as="targetPoint" />
          </mxGeometry>
        </mxCell>
        <mxCell id="170" value="JPARepository" style="rounded=1;whiteSpace=wrap;html=1;strokeColor=#8BE9FD;fillColor=#FF5555;" parent="1" vertex="1">
          <mxGeometry x="-58" y="450" width="150" height="50" as="geometry" />
        </mxCell>
        <mxCell id="171" value="" style="endArrow=classic;html=1;rounded=0;entryX=1;entryY=0.5;entryDx=0;entryDy=0;exitX=0;exitY=0.5;exitDx=0;exitDy=0;fillColor=#dae8fc;strokeColor=#000000;" parent="1" source="113" target="170" edge="1">
          <mxGeometry width="50" height="50" relative="1" as="geometry">
            <mxPoint x="540" y="480" as="sourcePoint" />
            <mxPoint x="590" y="430" as="targetPoint" />
          </mxGeometry>
        </mxCell>
        <mxCell id="207" value="" style="edgeStyle=orthogonalEdgeStyle;rounded=0;orthogonalLoop=1;jettySize=auto;html=1;entryX=0.5;entryY=1;entryDx=0;entryDy=0;" parent="1" source="178" target="183" edge="1">
          <mxGeometry relative="1" as="geometry">
            <mxPoint x="658.75" y="595" as="targetPoint" />
          </mxGeometry>
        </mxCell>
        <mxCell id="178" value="IAuthAdapter" style="rounded=1;whiteSpace=wrap;html=1;strokeColor=#9673a6;fillColor=#BD93F9;dashed=1;" parent="1" vertex="1">
          <mxGeometry x="428.75" y="570" width="150" height="50" as="geometry" />
        </mxCell>
        <mxCell id="213" value="" style="edgeStyle=orthogonalEdgeStyle;rounded=0;orthogonalLoop=1;jettySize=auto;html=1;entryX=1;entryY=0.5;entryDx=0;entryDy=0;exitX=0;exitY=0.25;exitDx=0;exitDy=0;" parent="1" source="183" target="215" edge="1">
          <mxGeometry relative="1" as="geometry" />
        </mxCell>
        <mxCell id="214" value="" style="edgeStyle=orthogonalEdgeStyle;rounded=0;orthogonalLoop=1;jettySize=auto;html=1;" parent="1" source="183" target="190" edge="1">
          <mxGeometry relative="1" as="geometry" />
        </mxCell>
        <mxCell id="216" value="" style="edgeStyle=orthogonalEdgeStyle;rounded=0;orthogonalLoop=1;jettySize=auto;html=1;" parent="1" source="183" target="188" edge="1">
          <mxGeometry relative="1" as="geometry" />
        </mxCell>
        <mxCell id="183" value="AuthAdapter" style="rounded=1;whiteSpace=wrap;html=1;strokeColor=#8BE9FD;fillColor=#8BE9FD;" parent="1" vertex="1">
          <mxGeometry x="696.25" y="400" width="150" height="50" as="geometry" />
        </mxCell>
        <mxCell id="194" value="" style="edgeStyle=orthogonalEdgeStyle;rounded=0;orthogonalLoop=1;jettySize=auto;html=1;" parent="1" source="188" target="191" edge="1">
          <mxGeometry relative="1" as="geometry" />
        </mxCell>
        <mxCell id="188" value="GenerateToken" style="rounded=1;whiteSpace=wrap;html=1;strokeColor=#8BE9FD;fillColor=#8BE9FD;" parent="1" vertex="1">
          <mxGeometry x="510" y="400" width="150" height="50" as="geometry" />
        </mxCell>
        <mxCell id="190" value="AuthenticationManager" style="rounded=1;whiteSpace=wrap;html=1;strokeColor=#8BE9FD;fillColor=#FF5555;" parent="1" vertex="1">
          <mxGeometry x="696.25" y="230" width="150" height="50" as="geometry" />
        </mxCell>
        <mxCell id="208" value="" style="edgeStyle=orthogonalEdgeStyle;rounded=0;orthogonalLoop=1;jettySize=auto;html=1;" parent="1" source="191" target="192" edge="1">
          <mxGeometry relative="1" as="geometry" />
        </mxCell>
        <mxCell id="191" value="CreateToken" style="rounded=1;whiteSpace=wrap;html=1;strokeColor=#8BE9FD;fillColor=#8BE9FD;" parent="1" vertex="1">
          <mxGeometry x="510" y="310" width="150" height="50" as="geometry" />
        </mxCell>
        <mxCell id="212" value="" style="edgeStyle=orthogonalEdgeStyle;rounded=0;orthogonalLoop=1;jettySize=auto;html=1;" parent="1" source="192" target="195" edge="1">
          <mxGeometry relative="1" as="geometry" />
        </mxCell>
        <mxCell id="192" value="SignKey" style="rounded=1;whiteSpace=wrap;html=1;strokeColor=#8BE9FD;fillColor=#8BE9FD;" parent="1" vertex="1">
          <mxGeometry x="320" y="310" width="150" height="50" as="geometry" />
        </mxCell>
        <mxCell id="195" value="JsonwebToken" style="rounded=1;whiteSpace=wrap;html=1;strokeColor=#8BE9FD;fillColor=#FF5555;" parent="1" vertex="1">
          <mxGeometry x="320" y="230" width="150" height="50" as="geometry" />
        </mxCell>
        <mxCell id="215" value="JpaRepository" style="rounded=1;whiteSpace=wrap;html=1;strokeColor=#8BE9FD;fillColor=#FF5555;" parent="1" vertex="1">
          <mxGeometry x="500" y="230" width="150" height="50" as="geometry" />
        </mxCell>
        <mxCell id="220" value="Sentry" style="rounded=1;whiteSpace=wrap;html=1;strokeColor=#8BE9FD;fillColor=#FF5555;" vertex="1" parent="1">
          <mxGeometry x="-70" y="790" width="150" height="50" as="geometry" />
        </mxCell>
        <mxCell id="221" value="Swagger" style="rounded=1;whiteSpace=wrap;html=1;strokeColor=#8BE9FD;fillColor=#FF5555;" vertex="1" parent="1">
          <mxGeometry x="-70" y="850" width="150" height="50" as="geometry" />
        </mxCell>
        <mxCell id="222" value="springframework" style="rounded=1;whiteSpace=wrap;html=1;strokeColor=#8BE9FD;fillColor=#FF5555;" vertex="1" parent="1">
          <mxGeometry x="-70" y="910" width="150" height="50" as="geometry" />
        </mxCell>
        <mxCell id="224" value="" style="edgeStyle=orthogonalEdgeStyle;rounded=0;orthogonalLoop=1;jettySize=auto;html=1;entryX=0;entryY=0.5;entryDx=0;entryDy=0;exitX=0.25;exitY=0;exitDx=0;exitDy=0;" edge="1" parent="1" source="11" target="221">
          <mxGeometry relative="1" as="geometry">
            <mxPoint x="-60" y="845" as="targetPoint" />
            <mxPoint x="485" y="800" as="sourcePoint" />
          </mxGeometry>
        </mxCell>
        <mxCell id="226" value="" style="edgeStyle=orthogonalEdgeStyle;rounded=0;orthogonalLoop=1;jettySize=auto;html=1;exitX=0.25;exitY=0;exitDx=0;exitDy=0;entryX=0;entryY=0.5;entryDx=0;entryDy=0;" edge="1" parent="1" source="11" target="222">
          <mxGeometry relative="1" as="geometry">
            <mxPoint x="-110" y="960" as="targetPoint" />
            <mxPoint x="485" y="800" as="sourcePoint" />
          </mxGeometry>
        </mxCell>
      </root>
    </mxGraphModel>
  </diagram>
</mxfile>
